<?xml version="1.0" standalone="no"?>
<!DOCTYPE svg PUBLIC "-//W3C//DTD SVG 20010904//EN"
 "http://www.w3.org/TR/2001/REC-SVG-20010904/DTD/svg10.dtd">
<svg version="1.0" xmlns="http://www.w3.org/2000/svg"
 width="1034.000000pt" height="408.000000pt" viewBox="0 0 1034.000000 408.000000"
 preserveAspectRatio="xMidYMid meet">

<g transform="translate(0.000000,408.000000) scale(0.100000,-0.100000)"
fill="#000000" stroke="none">
<path d="M3605 3560 c-411 -5 -682 -12 -780 -21 -183 -17 -402 -17 -640 0
-289 20 -364 23 -400 17 -42 -8 -91 -55 -100 -96 -6 -28 -10 -30 -51 -30 -77
0 -120 -69 -79 -128 13 -18 14 -29 5 -62 -7 -28 -8 -72 -1 -147 6 -60 15 -169
21 -243 6 -74 15 -178 20 -230 18 -175 39 -404 44 -468 5 -72 14 -67 -131 -77
-51 -3 -193 -23 -315 -45 -123 -22 -233 -40 -245 -40 -17 0 -22 8 -27 38 -6
40 -19 248 -36 587 -9 183 -21 311 -60 647 -15 125 -53 174 -137 172 -104 -2
-143 -102 -143 -365 1 -208 17 -494 35 -603 15 -96 24 -205 45 -546 16 -257
35 -443 80 -770 10 -74 24 -182 30 -238 15 -138 43 -227 85 -269 29 -29 40
-33 84 -33 44 0 56 5 87 33 35 32 60 101 50 136 -9 26 -94 820 -98 901 l-3 75
110 7 c61 4 164 15 230 24 66 8 175 18 241 21 l121 6 6 -119 c4 -65 9 -234 12
-374 3 -140 11 -284 16 -320 43 -270 57 -321 101 -353 36 -27 99 -27 135 -1
58 44 63 64 64 265 1 101 -6 283 -15 404 -8 121 -18 427 -21 680 -3 253 -9
501 -15 550 -35 339 -56 521 -65 556 l-6 25 887 2 c551 2 950 -1 1053 -8 91
-6 461 -15 821 -20 870 -13 1561 -28 1580 -36 16 -6 1229 -27 1680 -28 361 -1
933 12 1140 25 91 6 308 14 482 17 300 7 318 8 345 28 52 39 75 83 70 137 -8
85 -59 130 -168 146 -35 5 -166 34 -290 64 -125 31 -264 61 -310 67 -61 9
-492 14 -1569 19 -817 4 -1492 10 -1500 13 -23 10 -1769 15 -2475 8z"/>
<path d="M8827 2969 c-15 -11 -32 -39 -38 -62 -14 -53 -7 -240 22 -552 12
-126 22 -297 23 -380 1 -108 6 -163 18 -195 8 -25 19 -90 22 -145 14 -199 45
-425 65 -469 37 -84 130 -109 191 -51 44 42 53 84 49 227 l-4 126 25 -18 c14
-10 62 -52 108 -94 118 -109 154 -132 247 -161 103 -31 166 -32 213 -3 35 22
71 84 72 126 0 33 -24 86 -51 112 -30 28 -117 70 -147 70 -14 0 -52 28 -105
78 -45 43 -134 117 -197 165 -63 47 -132 102 -152 122 l-38 36 49 73 c119 176
336 588 353 670 27 125 -58 225 -165 195 -48 -13 -64 -35 -158 -214 -46 -88
-99 -190 -119 -227 -19 -38 -38 -68 -41 -68 -3 0 -12 48 -19 108 -16 143 -67
453 -79 485 -25 64 -94 86 -144 46z"/>
<path d="M4773 2954 c-44 -22 -61 -51 -78 -134 -8 -39 -15 -73 -15 -75 0 -2
-33 13 -72 34 -172 92 -360 130 -485 98 -77 -20 -170 -66 -218 -108 -42 -37
-90 -133 -104 -210 -5 -32 -13 -153 -17 -270 -6 -193 -4 -224 14 -312 57 -275
184 -381 452 -379 128 1 225 40 347 139 l56 45 -7 -78 c-14 -150 -38 -290 -77
-441 -68 -265 -121 -365 -224 -420 -70 -37 -125 -49 -154 -34 -29 16 -60 125
-72 256 -6 61 -17 131 -25 157 -40 126 -182 148 -239 37 -40 -76 -38 -203 6
-377 57 -228 148 -336 304 -360 112 -18 264 15 379 83 168 99 282 325 360 715
40 199 45 300 47 940 2 553 1 608 -14 637 -33 62 -106 87 -164 57z m-459 -329
c88 -23 205 -75 241 -107 18 -15 49 -35 69 -43 43 -18 43 -11 -16 -185 -77
-224 -131 -305 -240 -359 -50 -25 -73 -31 -127 -31 -36 0 -77 6 -91 13 -33 16
-65 84 -84 177 -19 92 -24 441 -7 483 23 59 137 83 255 52z"/>
<path d="M2491 2774 c-18 -14 -36 -35 -42 -47 -17 -30 -29 -209 -29 -437 -1
-206 8 -297 50 -545 10 -60 21 -141 25 -180 12 -137 65 -287 123 -348 72 -76
179 -93 286 -44 162 74 338 254 403 412 10 25 21 45 26 45 4 0 7 -75 7 -167 1
-212 7 -248 54 -290 29 -27 44 -33 81 -33 37 0 52 6 81 33 35 32 37 38 44 118
12 129 -10 689 -45 1129 -12 158 -14 168 -49 237 -49 96 -75 116 -145 111 -68
-6 -107 -43 -114 -110 -16 -144 -61 -447 -82 -551 -46 -232 -96 -371 -179
-501 -35 -56 -111 -121 -127 -110 -21 12 -70 129 -95 221 -22 83 -27 132 -35
318 -5 121 -14 274 -19 340 -6 66 -10 158 -10 205 0 110 -12 151 -56 189 -46
41 -108 43 -153 5z"/>
<path d="M5205 2780 c-28 -11 -62 -49 -75 -85 -34 -89 -34 -439 0 -895 5 -63
9 -223 9 -356 1 -152 5 -254 12 -275 33 -96 141 -139 220 -86 47 31 76 93 84
180 12 128 53 391 74 473 24 94 84 259 134 366 40 88 76 120 183 162 78 32
133 35 192 11 58 -23 134 -16 167 15 56 52 57 145 3 206 -57 65 -98 79 -228
79 -135 0 -178 -12 -319 -89 -115 -62 -175 -119 -223 -210 l-36 -70 -6 55 c-3
30 -9 133 -14 229 -7 142 -13 185 -30 222 -29 66 -88 93 -147 68z"/>
<path d="M6902 2650 c-226 -46 -397 -156 -543 -350 -107 -141 -152 -278 -152
-460 0 -97 4 -128 26 -196 60 -182 157 -283 375 -393 111 -56 185 -73 312 -75
101 0 108 1 181 35 283 135 446 561 369 962 -53 274 -122 371 -319 446 -84 32
-183 44 -249 31z m169 -302 c20 -9 45 -28 57 -42 50 -64 89 -257 77 -381 -9
-84 -46 -218 -79 -283 -30 -59 -99 -138 -139 -158 -51 -27 -140 -11 -256 46
-110 54 -172 104 -202 163 -61 119 -53 313 15 387 13 14 39 50 58 80 56 88 87
112 224 180 80 39 165 42 245 8z"/>
<path d="M7869 2527 c-149 -42 -244 -166 -305 -395 -35 -131 -44 -364 -20
-496 44 -231 153 -411 321 -531 80 -58 131 -75 217 -75 93 0 145 14 256 67 83
39 106 57 206 156 136 135 166 188 166 286 0 108 -46 159 -133 148 -55 -7
-110 -48 -164 -120 -69 -91 -158 -176 -206 -197 -23 -10 -63 -21 -90 -25 -42
-7 -52 -4 -88 21 -86 59 -158 175 -196 314 -26 95 -23 297 6 405 56 209 97
227 355 154 131 -36 172 -34 218 11 38 38 40 104 4 143 -88 95 -408 173 -547
134z"/>
</g>
</svg>
